<svg width="1921" height="369" viewBox="0 0 1921 369" fill="none" xmlns="http://www.w3.org/2000/svg">
<path d="M242 234C102 259.688 0 368.153 0 368.153H1921.12V54C1921.12 54 1840 18.3497 1727.4 36.2471C1597.6 56.8784 1552.76 161.059 1422.45 178.207C1292.32 195.331 1230.82 96.4467 1091.41 120.223C952 144 911.192 246.337 778.433 284.177C562.61 345.693 460 194 242 234Z" fill="white"/>
<path opacity="0.3" d="M224 221.711C81.0833 247.406 0 313.711 0 313.711V367.711H1921V17.7113C1921 17.7113 1868.95 -12.1906 1754 5.71128C1621.49 26.3478 1577.03 164.559 1444 181.711C1311.16 198.84 1202.46 95.9535 1060.15 119.736C917.833 143.519 876.175 245.881 740.65 283.731C520.331 345.262 446.542 181.701 224 221.711Z" fill="white"/>
</svg>
